<?xml version="1.0" standalone="no"?>
<!DOCTYPE svg PUBLIC "-//W3C//DTD SVG 20010904//EN" "http://www.w3.org/TR/2001/REC-SVG-20010904/DTD/svg10.dtd">
<svg xmlns="http://www.w3.org/2000/svg" version="1.0" width="1024.000000pt" height="1024.000000pt" viewBox="0 0 1024.000000 1024.000000" preserveAspectRatio="xMidYMid meet">
<metadata>
Created by potrace 1.16, written by Peter Selinger 2001-2019
<meta name="Producer" content="Online-Convert"/></metadata>
<g transform="translate(0.000000,1024.000000) scale(0.100000,-0.100000)" fill="#000000" stroke="none">
<path d="M3800 7926 c0 -8 14 -18 33 -21 80 -18 155 -72 189 -140 54 -104 53 -91 53 -780 l0 -640 233 -3 232 -2 0 651 0 651 478 -4 c525 -5 529 -5 662 -70 123 -60 220 -187 249 -326 16 -75 13 -226 -4 -301 -43 -180 -179 -310 -356 -341 -36 -6 -85 -10 -109 -8 l-45 3 0 280 c0 246 2 286 18 333 31 88 114 166 210 196 9 3 17 10 17 16 0 7 -157 10 -480 10 -313 0 -480 -3 -480 -10 0 -5 10 -10 23 -10 38 0 123 -48 165 -94 22 -23 49 -68 61 -100 20 -55 21 -70 21 -576 l0 -520 -655 0 -655 0 0 508 c0 561 0 566 63 659 37 55 111 109 174 126 24 6 43 15 43 19 0 4 -223 8 -495 8 -296 0 -495 -4 -495 -9 0 -5 17 -15 38 -21 106 -33 189 -128 214 -245 19 -84 17 -2477 -2 -2554 -25 -106 -118 -209 -216 -241 -19 -7 -34 -16 -34 -21 0 -5 197 -9 490 -9 330 0 490 3 490 10 0 6 -8 13 -17 16 -126 39 -208 126 -243 254 -9 32 -11 205 -11 639 1 327 3 597 5 599 2 2 94 0 204 -4 l200 -7 7 -141 c4 -78 5 -242 3 -366 -5 -247 -12 -284 -70 -370 -40 -59 -90 -97 -155 -116 -119 -35 -70 -37 533 -30 l587 7 -6 -103 c-9 -181 -72 -287 -202 -344 -36 -16 -65 -32 -65 -36 0 -5 223 -8 495 -8 294 0 495 4 495 9 0 5 -21 17 -47 25 -137 47 -210 161 -220 347 l-6 96 139 7 c164 9 258 26 375 70 298 111 521 349 575 611 21 103 14 270 -15 370 -83 280 -264 472 -526 560 l-93 31 58 22 c126 49 250 149 325 263 121 181 145 415 67 637 -39 111 -85 184 -167 267 -148 151 -345 248 -556 275 -52 6 -407 10 -941 10 -735 0 -858 -2 -858 -14z m1790 -1597 c30 -6 96 -30 146 -54 213 -103 316 -284 316 -560 1 -277 -107 -452 -331 -536 -111 -41 -176 -46 -688 -54 l-493 -6 0 365 0 366 215 0 215 0 0 -280 0 -280 225 0 225 0 0 531 0 531 58 -6 c31 -4 82 -12 112 -17z"/>
<path d="M1823 3485 c-251 -55 -403 -307 -338 -560 41 -157 162 -271 327 -310 226 -53 448 46 545 243 26 54 28 65 28 188 l0 130 -38 76 c-62 126 -176 210 -322 237 -74 14 -124 13 -202 -4z m201 -84 c82 -44 160 -161 185 -279 16 -75 14 -199 -4 -260 -43 -144 -186 -229 -322 -191 -35 9 -63 28 -104 68 -99 99 -146 236 -137 395 7 98 32 164 86 219 84 88 190 105 296 48z"/>
<path d="M2905 3488 c-285 -54 -445 -377 -319 -644 105 -221 405 -310 642 -190 63 32 144 106 175 159 47 81 59 139 55 255 -3 95 -7 115 -35 174 -89 190 -297 288 -518 246z m182 -80 c80 -37 152 -138 188 -262 13 -44 16 -85 13 -165 -6 -155 -43 -227 -148 -289 -60 -36 -164 -38 -225 -5 -131 69 -216 259 -202 453 6 91 30 151 83 209 78 88 184 109 291 59z"/>
<path d="M600 3469 c0 -13 10 -23 30 -31 17 -5 35 -18 40 -28 11 -20 14 -687 4 -714 -3 -8 -21 -20 -40 -26 -23 -8 -34 -18 -34 -31 0 -20 6 -20 273 -17 l272 3 51 27 c85 45 144 131 144 209 0 85 -84 195 -169 220 -36 11 -56 29 -32 29 20 0 75 56 92 95 38 82 18 172 -51 226 -60 48 -129 59 -367 59 -208 0 -213 0 -213 -21z m410 -57 c53 -26 80 -74 80 -141 0 -112 -49 -158 -175 -162 l-70 -3 -3 162 -2 162 67 0 c45 0 80 -6 103 -18z m47 -387 c98 -41 138 -144 94 -240 -35 -76 -92 -105 -205 -105 -105 0 -106 2 -106 202 l0 158 90 0 c59 0 104 -5 127 -15z"/>
<path d="M3580 3470 c0 -14 10 -24 31 -32 17 -6 34 -21 40 -35 5 -13 9 -175 9 -359 l0 -335 -25 -24 c-13 -14 -31 -25 -40 -25 -8 0 -15 -9 -15 -20 0 -19 7 -20 160 -20 153 0 160 1 160 20 0 11 -7 20 -15 20 -9 0 -27 11 -40 25 -24 23 -25 30 -25 137 l0 114 60 59 c33 32 61 57 64 54 2 -2 50 -78 106 -167 63 -102 100 -172 98 -185 -2 -14 -14 -24 -35 -31 -22 -6 -33 -15 -33 -27 0 -18 11 -19 185 -19 176 0 185 1 185 19 0 13 -11 23 -33 30 -57 19 -86 58 -335 446 l-32 50 133 132 c108 107 140 133 175 142 31 9 42 17 42 31 0 19 -8 20 -161 20 -159 0 -160 0 -157 -22 2 -15 13 -24 35 -30 40 -10 56 -35 40 -64 -7 -12 -85 -97 -174 -190 l-163 -168 0 190 c0 204 6 229 53 236 14 2 22 10 22 23 0 19 -8 20 -157 23 -154 2 -158 2 -158 -18z"/>
<path d="M4537 3484 c-16 -16 -5 -33 31 -51 l37 -18 3 -359 c1 -246 -1 -363 -9 -372 -6 -7 -24 -16 -40 -19 -20 -5 -29 -13 -29 -26 0 -18 10 -19 208 -21 345 -3 374 2 457 86 84 84 97 189 34 275 -35 49 -99 97 -140 106 -33 8 -38 21 -10 30 32 10 89 81 97 120 11 60 0 130 -27 164 -13 17 -49 43 -79 58 -55 28 -56 28 -290 31 -129 2 -238 0 -243 -4z m411 -74 c48 -30 72 -75 72 -140 0 -111 -50 -157 -175 -161 l-70 -3 -3 162 -2 162 72 0 c55 0 81 -5 106 -20z m52 -392 c45 -23 85 -71 96 -115 4 -13 3 -43 0 -67 -15 -101 -90 -156 -211 -156 -111 0 -109 -3 -113 194 l-3 166 93 0 c77 0 102 -4 138 -22z"/>
<path d="M5660 3466 c0 -14 5 -28 10 -31 6 -3 10 -15 10 -26 0 -28 -236 -659 -258 -688 -10 -14 -35 -35 -55 -46 -21 -11 -37 -28 -37 -37 0 -16 12 -18 115 -18 106 0 115 1 115 19 0 10 -11 26 -25 35 -33 22 -32 45 6 150 l32 86 151 0 152 0 32 -92 c38 -108 39 -123 12 -140 -11 -7 -20 -23 -20 -35 0 -23 1 -23 150 -23 143 0 150 1 150 20 0 12 -9 22 -24 26 -14 3 -31 13 -39 22 -8 10 -74 175 -147 367 -73 193 -141 369 -151 393 l-18 42 -81 0 c-78 0 -80 -1 -80 -24z m128 -316 c28 -80 53 -153 57 -162 7 -17 -3 -18 -119 -18 -69 0 -126 3 -126 6 0 25 125 342 131 332 4 -7 29 -78 57 -158z"/>
<path d="M6345 3468 c-2 -13 -12 -61 -20 -108 -14 -79 -14 -86 2 -97 26 -20 31 -17 57 35 28 54 79 106 119 121 36 14 267 15 267 1 0 -5 -101 -176 -225 -380 -134 -221 -225 -380 -225 -395 l0 -25 320 0 c176 0 323 0 328 0 9 -1 43 210 37 228 -2 6 -15 12 -27 12 -17 0 -28 -11 -42 -41 -10 -22 -34 -55 -53 -74 -52 -51 -106 -65 -250 -65 -68 0 -123 2 -123 5 0 2 104 175 230 384 127 209 230 389 230 400 0 21 -4 21 -310 21 l-310 0 -5 -22z"/>
<path d="M7407 3483 c-12 -11 -8 -36 8 -53 14 -15 4 -48 -109 -349 -68 -182 -131 -343 -140 -356 -9 -14 -34 -36 -56 -50 -70 -44 -56 -55 75 -55 110 0 115 1 115 21 0 13 -8 23 -20 26 -34 9 -34 46 0 148 l32 95 152 0 152 0 32 -92 c39 -112 40 -131 7 -146 -15 -7 -25 -20 -25 -32 0 -19 6 -20 154 -20 127 0 155 3 160 15 4 10 -7 21 -33 35 -46 23 -39 8 -221 493 l-123 327 -77 0 c-42 0 -80 -3 -83 -7z m122 -331 c28 -83 54 -159 57 -167 5 -13 -12 -15 -121 -15 -97 0 -126 3 -123 13 51 149 124 335 128 329 4 -4 30 -76 59 -160z"/>
<path d="M8327 3484 c-11 -12 -8 -36 7 -53 12 -14 -3 -61 -110 -351 -69 -184 -132 -346 -142 -360 -10 -14 -35 -34 -55 -45 -21 -11 -37 -28 -37 -37 0 -16 12 -18 115 -18 110 0 115 1 115 21 0 13 -8 23 -20 26 -35 9 -35 49 -3 147 l29 91 155 0 154 0 35 -103 35 -104 -27 -22 c-16 -12 -28 -29 -28 -39 0 -15 15 -17 155 -17 148 0 155 1 155 20 0 11 -6 20 -14 20 -8 0 -27 11 -42 23 -22 19 -59 107 -174 413 l-147 389 -74 3 c-41 1 -78 0 -82 -4z m128 -361 l53 -153 -124 0 c-74 0 -124 4 -124 10 0 8 86 247 116 324 9 23 3 37 79 -181z"/>
<path d="M8940 3470 c0 -13 11 -25 34 -34 25 -10 35 -22 40 -46 10 -53 7 -656 -4 -685 -6 -15 -22 -30 -40 -36 -19 -7 -30 -18 -30 -30 0 -19 8 -19 157 -17 138 3 158 5 161 20 2 10 -6 19 -20 23 -55 17 -58 27 -58 182 l0 143 63 0 62 0 84 -131 c46 -73 86 -140 88 -150 4 -13 -4 -24 -26 -36 -17 -10 -31 -26 -31 -35 0 -16 14 -18 164 -18 144 0 165 2 170 17 7 16 -8 33 -30 33 -21 0 -74 68 -168 215 l-95 150 57 26 c97 45 142 112 142 211 -1 99 -52 168 -149 203 -35 12 -97 15 -307 15 -257 0 -264 -1 -264 -20z m469 -58 c93 -48 109 -211 29 -289 -48 -47 -96 -63 -183 -63 l-75 0 0 188 0 187 97 -2 c70 -2 106 -8 132 -21z"/>
</g>
</svg>
